<svg t="1711803750602" class="icon" viewBox="0 0 1314 1024" version="1.1" xmlns="http://www.w3.org/2000/svg" p-id="55754" width="200" height="200"><path d="M795.653467 615.265611c-47.034725-18.577263-93.709667-38.067822-140.848175-56.361411C526.528769 509.129588 395.553873 489.071679 259.320608 522.054105 182.237073 540.714395 114.750061 579.806216 46.647266 617.922471c-12.938355 14.986351-36.531825 17.947643-46.647266 40.773114 0.12454 0.207567 0.269837 0.387459 0.401297 0.581188l45.304998-6.614474c7.603878-2.158699 15.083216-5.223774 22.846229-6.344637 136.648399-19.718883 270.805992 2.034158 404.825207 25.025684 93.951829 16.121052 186.914254 39.984359 283.578293 33.854209 67.94366-4.30356 133.368838-16.439321 191.363111-56.499789-54.313414 2.345509-103.838946-14.142244-152.665668-33.432155" fill="#CE152D" p-id="55755"></path><path d="M1283.803063 536.992024c-52.915795-13.657921-106.551157-18.15521-160.740031-10.468306-18.902452 2.677617-36.635609 3.251886-52.832768-8.454903C1011.246588 475.469109 949.135566 484.913416 885.737627 505.89154 867.423282 511.945583 867.31258 518.760706 878.472776 531.961979c27.046005 31.999942 57.530706 59.343459 95.819933 77.533264 16.812942 7.984418 31.162754 8.79393 48.287047-1.439133 55.026062-32.850967 115.497303-50.694826 178.729188-59.640972h112.058606L1314.592196 544.492118c-10.267657-2.490806-20.535314-5.002369-30.796052-7.500094" fill="#1F84CE" p-id="55756"></path><path d="M965.394996 619.804413c-47.69894-16.051863-88.901027-43.007922-125.744203-76.592293-56.624329-51.635798-102.648894-111.830282-139.201476-179.033619-94.539936-173.789088-239.048213-288.34542-422.191662-357.181619-9.658793-3.632426-19.663532-11.623763-35.182639-3.417939C308.098897 73.349194 348.837418 157.116392 393.754957 238.03992 454.170847 346.901992 537.737397 434.453832 637.210513 507.1577c87.454976 63.903019 183.053504 109.982934 293.133303 119.43416 12.46095 7.749175 26.44406 5.341396 39.956684 5.832638 4.947018 0.179892 9.928631-1.937294 6.531448-7.624635-1.729727-2.905941-7.500094-3.411021-11.443871-4.99545M854.59563 708.193441c-106.454292 26.741573-213.0608 28.838001-319.72266 1.58443-28.616596-7.313284-54.02282-1.383781-78.529586 14.16992-61.038591 38.732037-121.551346 78.225155-177.096326 124.630259-39.686847 33.155399-76.405482 69.292847-102.897974 114.459467-9.831766 7.583121-15.263107 18.127534-19.718883 29.336162-6.316961 7.562365-14.384406 14.474352-10.18463 26.430222 12.163437-0.733404 13.353489-11.014899 17.657049-18.355858l20.715205-28.505894c5.31372-5.936422 10.703548-11.803654 15.934241-17.809265 69.922467-80.259313 150.596914-131.134031 264.412923-129.61879 143.124496 1.902699 278.72814-36.898527 403.392994-109.560882 7.458581-4.324316 20.646016-3.22421 17.034347-20.659854l-30.9967 13.900083" fill="#1F84CE" p-id="55757"></path></svg>