<?xml version="1.0" standalone="no"?><!DOCTYPE svg PUBLIC "-//W3C//DTD SVG 1.1//EN" "http://www.w3.org/Graphics/SVG/1.1/DTD/svg11.dtd"><svg t="1710839576170" class="icon" viewBox="0 0 1024 1024" version="1.1" xmlns="http://www.w3.org/2000/svg" p-id="1519" xmlns:xlink="http://www.w3.org/1999/xlink" width="200" height="200"><path d="M515 504m-278 0a278 278 0 1 0 556 0 278 278 0 1 0-556 0Z" fill="#34BCF7" p-id="1520"></path><path d="M246.05 574.6s2.76-53.69 58.36-70.65C304.41 504 328 496 338 523a35.27 35.27 0 0 1-13 36s-21 20-7 44c0 0 28 41 101 30 0 0 148-20 117 91 0 0-17 51-80.05 51.71 0.05 0-159.85-20.52-209.9-201.11zM709 305s-103.35 30.11-78.18 120.56c0 0 13.18 55.44 63 83 0 0 40.22 19.47 40.22 54.47 0 0 8 30-26 68 0 0-25 28 15.89 56.44C723.89 687.44 896 500 709 305z" fill="#64D7FF" p-id="1521"></path><path d="M667.21 271.34a279.55 279.55 0 0 1 73.06 69.73 153.54 153.54 0 0 1 33.33 10.51c16.83 7.77 28 18 33.14 30.28 5.16 12.32 4.59 27.41-1.68 44.86-7.23 20.11-21.94 42.63-42.56 65.12-45.9 50.16-116.17 96.53-197.86 130.73C488 654.66 410.75 672 345.41 672c-4.3 0-8.56-0.08-12.75-0.23-30.49-1.1-56.86-6.42-76.26-15.38-16.83-7.77-28-18-33.14-30.28s-4.59-27.41 1.68-44.86a153.49 153.49 0 0 1 15.89-31.09 280.34 280.34 0 0 1 1.58-101c-8.07 7.57-15.71 15.26-22.84 23-58.07 63.39-78.06 127-56.27 179s81.11 82.42 167 85.52q7.35 0.27 14.87 0.27c73.94 0 160.11-19.14 244.56-54.5 90.19-37.76 168.56-89.88 220.69-146.77 58.07-63.39 78.06-127 56.27-179s-81.11-82.42-167-85.52a303.54 303.54 0 0 0-32.48 0.18zM719.85 337.86z" fill="#FED54A" p-id="1522"></path></svg>